<svg xmlns="http://www.w3.org/2000/svg" viewBox="0 0 32 32" fill="none" width="32" height="32" aria-label="Penelope favicon">
  <!--
    Favicon-optimized version — simplified for 16–32px legibility.
    Drops the fine warp lines, retains chat bubble + sinusoidal weft + shuttle hint.
  -->

  <!-- Chat bubble -->
  <path
    d="M2 5 C2 3.343 3.343 2 5 2 L27 2 C28.657 2 30 3.343 30 5 L30 21 C30 22.657 28.657 24 27 24 L17 24 L13 30 L13 24 L5 24 C3.343 24 2 22.657 2 21 Z"
    stroke="#2D4A3E"
    stroke-width="2"
    stroke-linejoin="round"
    stroke-linecap="round"
    fill="none"
  />

  <!-- Weft wave — single bold sinusoid through bubble -->
  <path
    d="M6 11 C7.5 8.5 9 8.5 10.5 11 C12 13.5 13.5 13.5 15 11 C16.5 8.5 18 8.5 19.5 11 C21 13.5 22.5 13.5 24 11 C25.5 8.5 27 8.5 27 10"
    stroke="#2D4A3E"
    stroke-width="2"
    stroke-linecap="round"
    fill="none"
  />

  <!-- Second weft wave (undoing motif) -->
  <path
    d="M6 16 C7.5 18.5 9 18.5 10.5 16 C12 13.5 13.5 13.5 15 16 C16.5 18.5 18 18.5 19.5 16 C21 13.5 22.5 13.5 24 16 C25.5 18.5 26 18.5 26 17"
    stroke="#2D4A3E"
    stroke-width="2"
    stroke-linecap="round"
    fill="none"
  />
</svg>
